<?xml version="1.0" encoding="UTF-8"?>
<svg width="19px" height="19px" viewBox="0 0 19 19" version="1.1" xmlns="http://www.w3.org/2000/svg" xmlns:xlink="http://www.w3.org/1999/xlink">
    <!-- Generator: Sketch 51.3 (57544) - http://www.bohemiancoding.com/sketch -->
    <title>btn_close</title>
    <desc>Created with Sketch.</desc>
    <defs></defs>
    <g id="UiKit" stroke="none" stroke-width="1" fill="none" fill-rule="evenodd">
        <path d="M10.9587873,9.5 L18.6977195,1.76106787 C19.1007602,1.35871493 19.1007602,0.704633484 18.6977195,0.302280543 C18.2946787,-0.100760181 17.6419729,-0.100760181 17.2389321,0.302280543 L9.5,8.04121267 L1.76106787,0.302280543 C1.35802715,-0.100760181 0.705321267,-0.100760181 0.302280543,0.302280543 C-0.100760181,0.704633484 -0.100760181,1.35871493 0.302280543,1.76106787 L8.04121267,9.5 L0.302280543,17.2389321 C-0.100760181,17.6412851 -0.100760181,18.2953665 0.302280543,18.6977195 C0.503800905,18.8992398 0.767909502,18.9996561 1.0320181,18.9996561 C1.2961267,18.9996561 1.55954751,18.8992398 1.76106787,18.6977195 L9.5,10.9587873 L17.2389321,18.6977195 C17.4404525,18.8992398 17.7045611,18.9996561 17.9686697,18.9996561 C18.2327783,18.9996561 18.4961991,18.8992398 18.6977195,18.6977195 C19.1007602,18.2953665 19.1007602,17.6412851 18.6977195,17.2389321 L10.9587873,9.5" id="btn_close" fill="#CE922E"></path>
    </g>
</svg>