<?xml version="1.0" encoding="UTF-8"?>
<svg width="30px" height="30px" viewBox="0 0 30 30" version="1.1" xmlns="http://www.w3.org/2000/svg" xmlns:xlink="http://www.w3.org/1999/xlink">
    <!-- Generator: Sketch 51.3 (57544) - http://www.bohemiancoding.com/sketch -->
    <title>btn_tash@3x</title>
    <desc>Created with Sketch.</desc>
    <defs></defs>
    <g id="UiKit" stroke="none" stroke-width="1" fill="none" fill-rule="evenodd">
        <g id="btn_tash">
            <rect id="Box" x="0" y="0" width="30" height="30"></rect>
            <path d="M11.5967078,11.1419753 C12.0236626,11.1419753 12.3683128,11.4866255 12.3683128,11.9135802 L12.3683128,21.1728395 C12.3683128,21.5997942 12.0236626,21.9444444 11.5967078,21.9444444 C11.1697531,21.9444444 10.8251029,21.5997942 10.8251029,21.1728395 L10.8251029,11.9135802 C10.8251029,11.4866255 11.1697531,11.1419753 11.5967078,11.1419753 Z M14.6522634,11.1419753 C15.0740741,11.1419753 15.4238683,11.4866255 15.4238683,11.9135802 L15.4238683,21.1728395 C15.4238683,21.5997942 15.0740741,21.9444444 14.6522634,21.9444444 C14.2253086,21.9444444 13.8806584,21.5997942 13.8806584,21.1728395 L13.8806584,11.9135802 C13.8806584,11.4866255 14.2253086,11.1419753 14.6522634,11.1419753 Z M16.93107,11.9135802 C16.93107,11.4866255 17.2808642,11.1419753 17.7026749,11.1419753 C18.1296296,11.1419753 18.4742798,11.4866255 18.4742798,11.9135802 L18.4742798,21.1728395 C18.4742798,21.5997942 18.1296296,21.9444444 17.7026749,21.9444444 C17.2808642,21.9444444 16.93107,21.5997942 16.93107,21.1728395 L16.93107,11.9135802 Z M20.1460905,23.1995885 C20.1460905,23.3384774 20.0329218,23.4567901 19.8888889,23.4567901 L9.47222222,23.4567901 C9.33333333,23.4567901 9.21502058,23.3384774 9.21502058,23.1995885 L9.21502058,9.37242798 L20.1460905,9.37242798 L20.1460905,23.1995885 Z M12.3683128,6.80041152 C12.3683128,6.66152263 12.4866255,6.54320988 12.6255144,6.54320988 L16.6738683,6.54320988 C16.8179012,6.54320988 16.93107,6.66152263 16.93107,6.80041152 L16.93107,7.82921811 L12.3683128,7.82921811 L12.3683128,6.80041152 Z M22.6563786,7.82921811 L18.4742798,7.82921811 L18.4742798,6.80041152 C18.4742798,5.80761317 17.6666667,5 16.6738683,5 L12.6255144,5 C11.632716,5 10.8251029,5.80761317 10.8251029,6.80041152 L10.8251029,7.82921811 L6.77160494,7.82921811 C6.34979424,7.82921811 6,8.17386831 6,8.60082305 C6,9.02777778 6.34979424,9.37242798 6.77160494,9.37242798 L7.6718107,9.37242798 L7.6718107,23.1995885 C7.6718107,24.1923868 8.47942387,25 9.47222222,25 L19.8888889,25 C20.8816872,25 21.6893004,24.1923868 21.6893004,23.1995885 L21.6893004,9.37242798 L22.6563786,9.37242798 C23.0833333,9.37242798 23.4279835,9.02777778 23.4279835,8.60082305 C23.4279835,8.17386831 23.0833333,7.82921811 22.6563786,7.82921811 Z" id="Tarro" fill="#FF0000"></path>
        </g>
    </g>
</svg>