<?xml version="1.0" encoding="UTF-8"?>
<svg width="22px" height="22px" viewBox="0 0 22 22" version="1.1" xmlns="http://www.w3.org/2000/svg" xmlns:xlink="http://www.w3.org/1999/xlink">
    <!-- Generator: Sketch 51.3 (57544) - http://www.bohemiancoding.com/sketch -->
    <title>icon_search</title>
    <desc>Created with Sketch.</desc>
    <defs></defs>
    <g id="UiKit" stroke="none" stroke-width="1" fill="none" fill-rule="evenodd">
        <path d="M15.1760252,13.7618116 L21.7071068,20.2928932 C22.0976311,20.6834175 22.0976311,21.3165825 21.7071068,21.7071068 C21.3165825,22.0976311 20.6834175,22.0976311 20.2928932,21.7071068 L13.7618116,15.1760252 C12.3145189,16.3182963 10.4868697,17 8.5,17 C3.80557963,17 0,13.1944204 0,8.5 C0,3.80557963 3.80557963,0 8.5,0 C13.1944204,0 17,3.80557963 17,8.5 C17,10.4868697 16.3182963,12.3145189 15.1760252,13.7618116 Z M13.1597589,13.0317433 C14.2986171,11.8609174 15,10.2623671 15,8.5 C15,4.91014913 12.0898509,2 8.5,2 C4.91014913,2 2,4.91014913 2,8.5 C2,12.0898509 4.91014913,15 8.5,15 C10.2623671,15 11.8609174,14.2986171 13.0317433,13.1597589 C13.0509347,13.1367843 13.071318,13.1144685 13.0928932,13.0928932 C13.1144685,13.071318 13.1367843,13.0509347 13.1597589,13.0317433 Z" id="icon_search" fill="#EE9800" fill-rule="nonzero"></path>
    </g>
</svg>