<?xml version="1.0" encoding="UTF-8"?>
<svg width="25px" height="25px" viewBox="0 0 25 25" version="1.1" xmlns="http://www.w3.org/2000/svg" xmlns:xlink="http://www.w3.org/1999/xlink">
    <!-- Generator: Sketch 51.3 (57544) - http://www.bohemiancoding.com/sketch -->
    <title>icon_description_1</title>
    <desc>Created with Sketch.</desc>
    <defs></defs>
    <g id="UiKit" stroke="none" stroke-width="1" fill="none" fill-rule="evenodd">
        <g id="icon_description_1">
            <rect id="Mask" x="0" y="0" width="25" height="25"></rect>
            <path d="M6.38231419,19.0318994 C7.92198502,20.2635271 9.87498629,21 12,21 C14.1250137,21 16.078015,20.2635271 17.6176858,19.0318994 L14.7573899,16.1716035 C13.9669569,16.6951232 13.0190823,17 12,17 C10.9809177,17 10.0330431,16.6951232 9.2426101,16.1716035 L6.38231419,19.0318994 Z M4.96810063,17.6176858 L7.82839654,14.7573899 C7.30487676,13.9669569 7,13.0190823 7,12 C7,10.9809177 7.30487676,10.0330431 7.82839654,9.2426101 L4.96810063,6.38231419 C3.73647287,7.92198502 3,9.87498629 3,12 C3,14.1250137 3.73647287,16.078015 4.96810063,17.6176858 Z M16.1716035,9.2426101 C16.6951232,10.0330431 17,10.9809177 17,12 C17,13.0190823 16.6951232,13.9669569 16.1716035,14.7573899 L19.0318994,17.6176858 C20.2635271,16.078015 21,14.1250137 21,12 C21,9.87498629 20.2635271,7.92198502 19.0318994,6.38231419 L16.1716035,9.2426101 Z M14.7573899,7.82839654 L17.6176858,4.96810063 C16.078015,3.73647287 14.1250137,3 12,3 C9.87498629,3 7.92198502,3.73647287 6.38231419,4.96810063 L9.2426101,7.82839654 C10.0330431,7.30487676 10.9809177,7 12,7 C13.0190823,7 13.9669569,7.30487676 14.7573899,7.82839654 Z M12,23 C5.92486775,23 1,18.0751322 1,12 C1,5.92486775 5.92486775,1 12,1 C18.0751322,1 23,5.92486775 23,12 C23,18.0751322 18.0751322,23 12,23 Z M12,15 C13.6568542,15 15,13.6568542 15,12 C15,10.3431458 13.6568542,9 12,9 C10.3431458,9 9,10.3431458 9,12 C9,13.6568542 10.3431458,15 12,15 Z" id="Icon" fill="#EBD3AB" fill-rule="nonzero"></path>
        </g>
    </g>
</svg>