<?xml version="1.0" encoding="UTF-8"?>
<svg width="25px" height="25px" viewBox="0 0 25 25" version="1.1" xmlns="http://www.w3.org/2000/svg" xmlns:xlink="http://www.w3.org/1999/xlink">
    <!-- Generator: Sketch 51.3 (57544) - http://www.bohemiancoding.com/sketch -->
    <title>icon_phone</title>
    <desc>Created with Sketch.</desc>
    <defs></defs>
    <g id="UiKit" stroke="none" stroke-width="1" fill="none" fill-rule="evenodd">
        <g id="icon_phone">
            <rect id="Mask" fill-rule="nonzero" x="0" y="0" width="25" height="25"></rect>
            <path d="M3.04812754,5.66986521 C3.02937271,5.92954748 3.05437915,6.73263894 3.72955305,8.48789872 L3.75119324,8.55041482 C4.651906,11.7868253 11.1761825,18.9232788 14.8324127,20.6737296 C17.5662899,21.9817588 19.1546798,22.2318232 19.4624514,22.1500714 C19.8144651,22.0106124 20.8411719,20.7795261 21.2792655,20.2553526 C21.4918202,20.0004793 21.6827348,19.7696506 21.834697,19.601338 C21.9621337,19.4570701 21.9573247,19.3753183 21.955882,19.3464647 C21.9477069,19.2070057 21.8178657,19.0386931 21.7380375,18.9617502 L18.0640143,16.470724 C17.5585956,16.3168382 17.1623397,16.4418704 17.0873204,16.4659151 L14.4717429,17.8893586 L14.1053024,17.6296764 C10.1047527,14.8068339 7.6372903,10.9548803 7.53389828,10.7913766 L7.31797729,10.4499425 L7.49590773,10.0844638 C7.53341739,10.0123298 8.41489442,8.21859859 8.84288927,7.49245002 C8.9525329,7.30490172 8.77941139,6.73263894 8.55723878,6.36716019 C7.8806222,5.31881326 6.62741481,3.49622845 6.19220656,3.12594077 C5.99648308,2.95762819 5.75026581,3.08746932 5.65504898,3.14998542 C4.56486435,4.09253588 3.30636713,5.28995967 3.04812754,5.66986521 Z M19.3306867,23.5975596 C18.0707468,23.5975596 15.9471229,22.804086 14.2096562,21.972141 C10.2345939,20.0726133 3.40062218,12.5610632 2.37151097,8.97360074 C1.76029585,7.38184461 1.50494162,6.13152258 1.63382097,5.3572847 C1.67373509,5.11683816 1.75741049,4.61670935 4.73990943,2.02950452 L4.77934267,2.00065094 C5.20685662,1.67845257 6.24847105,1.26969344 7.13139077,2.02950452 C7.85032594,2.64504768 9.46372225,5.11202923 9.77966901,5.59773125 C9.88546549,5.77085276 10.7068309,7.17506058 10.0850361,8.22821645 C9.79746206,8.71391847 9.2588618,9.78150113 8.97609666,10.348955 C9.6272259,11.2866965 11.6638081,14.032596 14.5760967,16.1869971 L16.477548,15.1578859 C16.5770928,15.1146055 17.4854999,14.7250821 18.6290637,15.1386501 L18.7911246,15.220402 L22.6522152,17.8412693 C22.7224256,17.8989765 23.3384497,18.4423857 23.3947142,19.2406682 C23.417797,19.5724844 23.3523956,20.0678043 22.9099739,20.5631242 C22.7666678,20.7218189 22.5868138,20.9382208 22.3872431,21.1786674 C21.348995,22.4193715 20.5622539,23.3186416 19.8885227,23.5254256 C19.7312706,23.5735149 19.5432414,23.5975596 19.3306867,23.5975596 Z" id="Icon" fill="#EE9800"></path>
        </g>
    </g>
</svg>