<?xml version="1.0" encoding="UTF-8"?>
<svg width="16px" height="19px" viewBox="0 0 16 19" version="1.1" xmlns="http://www.w3.org/2000/svg" xmlns:xlink="http://www.w3.org/1999/xlink">
    <!-- Generator: Sketch 51.3 (57544) - http://www.bohemiancoding.com/sketch -->
    <title>icon_home</title>
    <desc>Created with Sketch.</desc>
    <defs></defs>
    <g id="UiKit" stroke="none" stroke-width="1" fill="none" fill-rule="evenodd">
        <path d="M14.3367983,17.4713756 L10.9486189,17.4713756 L10.9486189,12.9569711 C10.9486189,12.0398342 10.1407781,11.2937694 9.14760915,11.2937694 L6.6955747,11.2937694 C5.7024057,11.2937694 4.88981289,12.0398342 4.88981289,12.9569711 L4.88981289,17.4713756 L1.66320166,17.4713756 C1.53489753,17.4713756 1.42560143,17.3620795 1.42560143,17.2337754 L1.42560143,8.0814142 L7.96911197,1.69947182 L14.4983665,7.83430995 L14.5743986,17.2337754 C14.5743986,17.3620795 14.4651025,17.4713756 14.3367983,17.4713756 Z M15.9192159,7.51592564 C15.9192159,7.51592564 15.9192159,7.51117363 15.9192159,7.50642163 C15.9192159,7.50166962 15.9192159,7.49691762 15.9192159,7.48741361 C15.9144639,7.40187752 15.8954559,7.31634144 15.8621919,7.23555736 L15.8574399,7.23080535 C15.8194238,7.14526927 15.7671518,7.06923719 15.7006237,7.00746113 C15.7006237,7.00746113 15.6958717,7.00746113 15.6958717,7.00270912 L8.44906445,0.193086313 C8.17344817,-0.0682739481 7.73626374,-0.0635219434 7.46539947,0.202590323 L0.218592219,7.26882139 C0.213840214,7.27357339 0.213840214,7.27357339 0.213840214,7.27357339 C0.147312147,7.34010146 0.095040095,7.41613354 0.057024057,7.50166962 C0.057024057,7.50642163 0.057024057,7.50642163 0.057024057,7.50642163 C0.0237600238,7.58720571 0.00475200475,7.67274179 0.00475200475,7.76302988 C0.00475200475,7.76778189 0,7.77253389 0,7.7772859 C0,7.7772859 0,7.7772859 0,7.7820379 L0,17.2337754 C0,18.1509123 0.746064746,18.896977 1.66320166,18.896977 L5.6026136,18.896977 C5.99703,18.896977 6.31541432,18.5785927 6.31541432,18.1841763 C6.31541432,18.1604163 6.31066231,18.1319043 6.31066231,18.1081442 C6.31066231,18.0796322 6.31541432,18.0558722 6.31541432,18.0273601 L6.31541432,12.9569711 C6.31541432,12.861931 6.46272646,12.7193708 6.6955747,12.7193708 L9.14760915,12.7193708 C9.38045738,12.7193708 9.52301752,12.861931 9.52301752,12.9569711 L9.52301752,18.0273601 C9.52301752,18.0558722 9.53252153,18.0796322 9.53252153,18.1081442 C9.53252153,18.1319043 9.52301752,18.1604163 9.52301752,18.1841763 C9.52301752,18.5785927 9.84615385,18.896977 10.2358182,18.896977 L14.3367983,18.896977 C15.2539353,18.896977 16,18.1509123 16,17.2290233 L15.9192159,7.51592564 Z" id="icon_home" fill="#FFFFFF"></path>
    </g>
</svg>