<?xml version="1.0" encoding="UTF-8"?>
<svg width="26px" height="22px" viewBox="0 0 26 22" version="1.1" xmlns="http://www.w3.org/2000/svg" xmlns:xlink="http://www.w3.org/1999/xlink">
    <!-- Generator: Sketch 51.3 (57544) - http://www.bohemiancoding.com/sketch -->
    <title>icon_cart</title>
    <desc>Created with Sketch.</desc>
    <defs>
        <rect id="path-1" x="0" y="0" width="26" height="22"></rect>
    </defs>
    <g id="UiKit" stroke="none" stroke-width="1" fill="none" fill-rule="evenodd">
        <g id="icon_cart">
            <mask id="mask-2" fill="white">
                <use xlink:href="#path-1"></use>
            </mask>
            <g id="Mask"></g>
            <path d="M10.4069612,18.803557 C11.3855297,18.803557 12.1816132,19.6067273 12.1816132,20.5929732 C12.1816132,21.5733134 11.3855297,22.3764837 10.4069612,22.3764837 C9.42839265,22.3764837 8.63230913,21.5733134 8.63230913,20.5929732 C8.63230913,19.6067273 9.42839265,18.803557 10.4069612,18.803557 Z M21.1097961,18.803557 C22.0883647,18.803557 22.8844482,19.6067273 22.8844482,20.5929732 C22.8844482,21.5733134 22.0883647,22.3764837 21.1097961,22.3764837 C20.1312276,22.3764837 19.3351441,21.5733134 19.3351441,20.5929732 C19.3351441,19.6067273 20.1312276,18.803557 21.1097961,18.803557 Z M22.2749836,15.1184226 L8.91814327,15.1184226 L6.95273828,7.60641795 L24.0012092,7.62413495 L22.2749836,15.1184226 Z M25.8071613,6.18905858 C25.6394404,5.97645468 25.3849063,5.8583414 25.1150175,5.85243573 L6.48855308,5.83471874 L5.92101877,3.66143437 C5.81885078,3.27166055 5.46687321,3 5.06410692,3 L0.885849607,3 C0.396270057,3 0,3.39567949 0,3.88584961 C0,4.37601972 0.396270057,4.77169921 0.885849607,4.77169921 L4.38023102,4.77169921 L4.9430408,6.92136093 C4.94599364,6.93907792 4.94953704,6.95088925 4.95308043,6.96270057 L7.37676496,16.2286875 C7.47893294,16.6184613 7.83091052,16.8901218 8.23426738,16.8901218 L22.9795294,16.8901218 C23.3923353,16.8901218 23.7502185,16.60665 23.8429374,16.2050648 L25.9772444,6.93907792 C26.0380728,6.6792287 25.9754727,6.40166249 25.8071613,6.18905858 Z" id="Icon" fill="#EE9800" mask="url(#mask-2)"></path>
        </g>
    </g>
</svg>