<?xml version="1.0" encoding="UTF-8"?>
<svg width="25px" height="25px" viewBox="0 0 25 25" version="1.1" xmlns="http://www.w3.org/2000/svg" xmlns:xlink="http://www.w3.org/1999/xlink">
    <!-- Generator: Sketch 51.3 (57544) - http://www.bohemiancoding.com/sketch -->
    <title>icon_location</title>
    <desc>Created with Sketch.</desc>
    <defs></defs>
    <g id="UiKit" stroke="none" stroke-width="1" fill="none" fill-rule="evenodd">
        <g id="icon_location">
            <rect id="Mask" fill-rule="nonzero" x="0" y="0" width="25" height="25"></rect>
            <path d="M19.3099853,22.2128312 L5.69001472,22.2128312 C5.30866658,22.2128312 5,22.5256379 5,22.9028459 C5,23.2846541 5.30866658,23.5928606 5.69001472,23.5928606 L19.3099853,23.5928606 C19.6913334,23.5928606 20,23.2846541 20,22.9028459 C20,22.5256379 19.6913334,22.2128312 19.3099853,22.2128312 M12.4489389,3.38002944 C15.2471786,3.38002944 17.1534593,5.62027723 17.3793241,7.78692345 C17.4363653,8.33433513 17.3669038,8.96914868 17.1612794,9.77876595 C17.0389168,10.2617763 16.6005275,11.2139966 16.2472399,11.7660083 C16.0761163,12.0512144 13.6164438,16.2373037 12.4457188,18.2337463 L8.38659225,11.0897939 L8.35991168,11.0437929 C8.25640947,10.859789 8.04112488,10.4733808 7.88886163,9.99497056 C7.6951975,9.38315751 7.60089549,8.80354514 7.60089549,8.22853288 C7.60089549,5.55587586 9.77582188,3.38002944 12.4489389,3.38002944 Z M7.15744603,11.7200074 L7.18320658,11.7660083 C7.18412659,11.7660083 7.18550662,11.7706084 7.18642664,11.7706084 L11.8357458,19.9495829 C11.9576484,20.1657875 12.1844333,20.2991904 12.4309985,20.2991904 C12.4328386,20.2991904 12.4342186,20.2991904 12.4360586,20.2991904 C12.6803238,20.2991904 12.9071087,20.1703876 13.0308513,19.9587831 C13.0727122,19.8897816 17.2137206,12.8378312 17.4193449,12.4928238 C17.798853,11.9040113 18.3232642,10.8091879 18.498528,10.1191732 C18.7460132,9.1485525 18.826515,8.36193572 18.7519934,7.64432041 C18.4161862,4.42885182 15.7067284,2 12.4489389,2 C9.01496565,2 6.22086605,4.79685967 6.22086605,8.22853288 C6.22086605,8.94614818 6.33632851,9.6591634 6.57323356,10.4089794 C6.76827772,11.0253925 7.04106354,11.5130029 7.15744603,11.7200074 Z" id="Icon" fill="#EE9800"></path>
        </g>
    </g>
</svg>