<?xml version="1.0" encoding="UTF-8"?>
<svg width="38px" height="38px" viewBox="0 0 38 38" version="1.1" xmlns="http://www.w3.org/2000/svg" xmlns:xlink="http://www.w3.org/1999/xlink">
    <!-- Generator: Sketch 51.3 (57544) - http://www.bohemiancoding.com/sketch -->
    <title>icon_box</title>
    <desc>Created with Sketch.</desc>
    <defs></defs>
    <g id="UiKit" stroke="none" stroke-width="1" fill="none" fill-rule="evenodd">
        <g id="icon_box">
            <rect id="Mask" fill-rule="nonzero" x="0" y="0" width="38" height="38"></rect>
            <path d="M18.6974055,3.5 L3.44255898,9.68549572 L3.39274996,9.66520039 L3.39274996,9.70486327 L3.39060155,9.70608099 L3.39274996,9.71274946 L3.39274996,29.3499921 L18.6904515,35.5 L33.9903014,29.3497022 L33.9903014,9.66549032 L33.9558139,9.679929 L33.9771283,9.62200032 L18.6974055,3.5 Z M4.95226418,10.2966752 L18.6831582,4.70351327 L23.8656709,6.60715755 L9.7379443,12.23285 L4.95226418,10.2966752 Z M13.1053959,13.5951308 L26.8829895,7.8681356 L32.5651754,10.2423417 L18.6916953,15.855683 L13.1053959,13.5951308 Z M19.2377853,16.8388469 L32.8964818,11.3126016 L32.8964818,28.5868876 L32.8977256,28.5872935 L19.2377853,34.112727 L19.2377853,16.8388469 Z M12.4156456,31.7402605 L9.54023471,30.6323093 L4.48606079,28.5872935 L4.48606079,11.3129495 L9.4895211,13.3372061 L9.4895211,17.6566329 L9.93542774,17.5289462 L10.236826,17.9536406 L10.6563299,17.8532077 L11.0626607,18.2934424 L11.4173168,18.1681912 L11.989753,18.7503774 L11.989753,14.3485515 L12.4350378,14.52889 L18.1452095,16.8387309 L18.1452095,34.112727 L12.4156456,31.7402605 Z" id="Icon" stroke="#F0D2A3" stroke-width="0.5" fill="#F0D2A3"></path>
        </g>
    </g>
</svg>