<?xml version="1.0" encoding="UTF-8"?>
<svg width="25px" height="25px" viewBox="0 0 25 25" version="1.1" xmlns="http://www.w3.org/2000/svg" xmlns:xlink="http://www.w3.org/1999/xlink">
    <!-- Generator: Sketch 51.3 (57544) - http://www.bohemiancoding.com/sketch -->
    <title>icon_calendar</title>
    <desc>Created with Sketch.</desc>
    <defs></defs>
    <g id="UiKit" stroke="none" stroke-width="1" fill="none" fill-rule="evenodd">
        <g id="icon_calendar">
            <rect id="Mask" fill-rule="nonzero" x="0" y="0" width="25" height="25"></rect>
            <path d="M20.4856198,20.4123241 C20.4805995,21.2707905 19.9133088,21.4133662 19.5819709,21.4213986 C19.5819709,21.4213986 6.04731923,21.4239088 5.45994748,21.4244108 C5.19387309,21.4244108 4.98302169,21.3501108 4.83241355,21.2030168 C4.61654188,20.9876472 4.50609591,20.5855235 4.50609591,20.0443382 C4.50609591,19.5518496 4.50609591,14.4858937 4.50609591,10.9415821 L20.49064,10.9415821 C20.49064,14.3453261 20.4956603,19.208965 20.4856198,20.4123241 Z M4.50609591,7.48914147 C4.50609591,6.70196291 4.80731219,6.36460067 5.51517046,6.36058446 C5.58043399,6.36008243 6.1226233,6.36008243 6.96100862,6.3595804 L6.96100862,7.46655024 C6.96100862,7.88222872 7.29736681,8.21959095 7.71404933,8.21959095 C8.12571159,8.21959095 8.46709004,7.88222872 8.46709004,7.46655024 L8.46709004,6.3595804 C8.78838741,6.3595804 9.12976587,6.3595804 9.48620514,6.3595804 C11.6901043,6.3595804 14.38599,6.3595804 16.4141797,6.3595804 L16.4141797,7.46655024 C16.4141797,7.88222872 16.7505378,8.21959095 17.1672204,8.21959095 C17.5839029,8.21959095 17.9202611,7.88222872 17.9202611,7.46655024 L17.9202611,6.3595804 C18.8289302,6.3595804 19.4112817,6.3595804 19.4313628,6.36008243 C19.7978426,6.37263311 20.0588967,6.46601015 20.2245657,6.64724195 C20.4605184,6.90026363 20.4956603,7.31142386 20.49064,7.44044483 C20.49064,7.45701173 20.49064,7.47408065 20.49064,7.49114957 C20.49064,7.51976512 20.49064,8.28786664 20.49064,9.43550069 L4.50609591,9.43550069 C4.50609591,8.26878961 4.50609591,7.49014552 4.50609591,7.49014552 C4.50609591,7.48964349 4.50609591,7.48914147 4.50609591,7.48914147 Z M21.9967215,7.5082185 C22.0017417,7.30037926 22.0017417,6.36560473 21.3491064,5.64268565 C21.0378496,5.30130719 20.4655387,4.88763683 19.4564641,4.85450304 C19.3510384,4.85450304 18.7737072,4.85450304 17.9202611,4.85400101 L17.9202611,3.7013467 C17.9202611,3.28566823 17.5839029,2.94830599 17.1672204,2.94830599 C16.7505378,2.94830599 16.4141797,3.28566823 16.4141797,3.7013467 L16.4141797,4.85400101 C14.0496318,4.85400101 10.8065365,4.85349898 8.46709004,4.85349898 L8.46709004,3.7013467 C8.46709004,3.28566823 8.12571159,2.94830599 7.71404933,2.94830599 C7.29736681,2.94830599 6.96100862,3.28566823 6.96100862,3.7013467 L6.96100862,4.85400101 C6.11760303,4.85400101 5.57039345,4.85400101 5.51015019,4.85450304 C4.29524451,4.86153142 2.99499422,5.55784306 3.00001449,7.49114957 C3.00001449,7.61515028 3.00503476,19.2787468 3.00001449,20.040824 C3.00001449,21.0077283 3.25604833,21.7572548 3.76811602,22.2683184 C4.20487963,22.7015679 4.78723111,22.9304922 5.4549272,22.9304922 C5.45994748,22.9304922 5.45994748,22.9304922 5.45994748,22.9304922 C6.0523395,22.9299902 19.5819709,22.9274801 19.5769506,22.9274801 C19.5819709,22.9274801 19.5819709,22.9274801 19.5819709,22.9274801 C20.545863,22.9274801 21.9816606,22.260788 21.9917012,20.4223646 C22.006762,18.5643622 21.9967215,8.02681253 21.9967215,7.5082185 Z M11.554557,18.1185621 C11.554557,18.6256095 11.9662192,19.0362677 12.4732666,19.0362677 C12.980314,19.0362677 13.3919763,18.6256095 13.3919763,18.1185621 C13.3919763,17.6115147 12.980314,17.2008565 12.4732666,17.2008565 C11.9662192,17.2008565 11.554557,17.6115147 11.554557,18.1185621 Z M6.85558292,18.1185621 C6.85558292,18.6256095 7.26724518,19.0362677 7.77429259,19.0362677 C8.28134,19.0362677 8.69300225,18.6256095 8.69300225,18.1185621 C8.69300225,17.6115147 8.28134,17.2008565 7.77429259,17.2008565 C7.26724518,17.2008565 6.85558292,17.6115147 6.85558292,18.1185621 Z M16.253531,18.1185621 C16.253531,18.6256095 16.6651932,19.0362677 17.1722406,19.0362677 C17.6792881,19.0362677 18.0909503,18.6256095 18.0909503,18.1185621 C18.0909503,17.6115147 17.6792881,17.2008565 17.1722406,17.2008565 C16.6651932,17.2008565 16.253531,17.6115147 16.253531,18.1185621 Z M11.554557,13.9768382 C11.554557,14.4838856 11.9662192,14.8945438 12.4732666,14.8945438 C12.980314,14.8945438 13.3919763,14.4838856 13.3919763,13.9768382 C13.3919763,13.4697908 12.980314,13.0591326 12.4732666,13.0591326 C11.9662192,13.0591326 11.554557,13.4697908 11.554557,13.9768382 Z M16.253531,13.9768382 C16.253531,14.4838856 16.6651932,14.8945438 17.1722406,14.8945438 C17.6792881,14.8945438 18.0909503,14.4838856 18.0909503,13.9768382 C18.0909503,13.4697908 17.6792881,13.0591326 17.1722406,13.0591326 C16.6651932,13.0591326 16.253531,13.4697908 16.253531,13.9768382 Z" id="Icon" fill="#EE9800"></path>
        </g>
    </g>
</svg>