<?xml version="1.0" encoding="UTF-8"?>
<svg width="25px" height="25px" viewBox="0 0 25 25" version="1.1" xmlns="http://www.w3.org/2000/svg" xmlns:xlink="http://www.w3.org/1999/xlink">
    <!-- Generator: Sketch 51.3 (57544) - http://www.bohemiancoding.com/sketch -->
    <title>icon_mobile</title>
    <desc>Created with Sketch.</desc>
    <defs></defs>
    <g id="UiKit" stroke="none" stroke-width="1" fill="none" fill-rule="evenodd">
        <g id="icon_mobile">
            <rect id="Mask" fill-rule="nonzero" x="0" y="0" width="25" height="25"></rect>
            <path d="M13.2091785,21.9053648 C14.061581,21.9053648 14.7570996,21.2150757 14.7570996,20.3626732 C14.7570996,19.5102708 14.061581,18.8199816 13.2091785,18.8199816 C12.3620055,18.8199816 11.6664869,19.5102708 11.6664869,20.3626732 C11.6664869,21.2150757 12.3620055,21.9053648 13.2091785,21.9053648 M18.7524094,16.508559 L7.24759064,16.508559 L7.24759064,3.33031207 C7.24759064,3.1838871 7.36786829,3.06883892 7.50906379,3.06883892 L18.4909362,3.06883892 C18.6373612,3.06883892 18.7524094,3.1838871 18.7524094,3.33031207 L18.7524094,16.508559 Z M18.7524094,22.4596879 C18.7524094,22.6008834 18.6373612,22.7211611 18.4909362,22.7211611 L7.50906379,22.7211611 C7.36786829,22.7211611 7.24759064,22.6008834 7.24759064,22.4596879 L7.24759064,18.0773979 L18.7524094,18.0773979 L18.7524094,22.4596879 Z M18.4909362,1.5 L7.50906379,1.5 C6.49977742,1.5 5.67875172,2.3210257 5.67875172,3.33031207 L5.67875172,22.4596879 C5.67875172,23.4689743 6.49977742,24.29 7.50906379,24.29 L18.4909362,24.29 C19.5002226,24.29 20.3212483,23.4689743 20.3212483,22.4596879 L20.3212483,3.33031207 C20.3212483,2.3210257 19.5002226,1.5 18.4909362,1.5 Z" id="Icon" fill="#EE9800"></path>
        </g>
    </g>
</svg>