<?xml version="1.0" encoding="UTF-8"?>
<svg width="26px" height="22px" viewBox="0 0 26 22" version="1.1" xmlns="http://www.w3.org/2000/svg" xmlns:xlink="http://www.w3.org/1999/xlink">
    <!-- Generator: Sketch 51.3 (57544) - http://www.bohemiancoding.com/sketch -->
    <title>icon_user</title>
    <desc>Created with Sketch.</desc>
    <defs>
        <rect id="path-1" x="0" y="0" width="26" height="22"></rect>
    </defs>
    <g id="UiKit" stroke="none" stroke-width="1" fill="none" fill-rule="evenodd">
        <g id="icon_user">
            <mask id="mask-2" fill="white">
                <use xlink:href="#path-1"></use>
            </mask>
            <g id="Mask"></g>
            <path d="M21,18.8888889 C21,19.3798087 20.6020309,19.7777778 20.1111111,19.7777778 C19.6201913,19.7777778 19.2222222,19.3798087 19.2222222,18.8888889 L19.2222222,17.1111111 C19.2222222,15.6383518 18.0283149,14.4444444 16.5555556,14.4444444 L9.44444444,14.4444444 C7.97168511,14.4444444 6.77777778,15.6383518 6.77777778,17.1111111 L6.77777778,18.8888889 C6.77777778,19.3798087 6.37980867,19.7777778 5.88888889,19.7777778 C5.39796911,19.7777778 5,19.3798087 5,18.8888889 L5,17.1111111 C5,14.6565122 6.98984556,12.6666667 9.44444444,12.6666667 L16.5555556,12.6666667 C19.0101544,12.6666667 21,14.6565122 21,17.1111111 L21,18.8888889 Z M13,10.8888889 C10.5454011,10.8888889 8.55555556,8.89904333 8.55555556,6.44444444 C8.55555556,3.98984556 10.5454011,2 13,2 C15.4545989,2 17.4444444,3.98984556 17.4444444,6.44444444 C17.4444444,8.89904333 15.4545989,10.8888889 13,10.8888889 Z M13,9.11111111 C14.4727593,9.11111111 15.6666667,7.91720378 15.6666667,6.44444444 C15.6666667,4.97168511 14.4727593,3.77777778 13,3.77777778 C11.5272407,3.77777778 10.3333333,4.97168511 10.3333333,6.44444444 C10.3333333,7.91720378 11.5272407,9.11111111 13,9.11111111 Z" id="Icon" fill="#EE9800" fill-rule="nonzero" mask="url(#mask-2)"></path>
        </g>
    </g>
</svg>