<?xml version="1.0" encoding="UTF-8"?>
<svg width="21px" height="20px" viewBox="0 0 21 20" version="1.1" xmlns="http://www.w3.org/2000/svg" xmlns:xlink="http://www.w3.org/1999/xlink">
    <!-- Generator: Sketch 51.3 (57544) - http://www.bohemiancoding.com/sketch -->
    <title>star_inactive</title>
    <desc>Created with Sketch.</desc>
    <defs></defs>
    <g id="UiKit" stroke="none" stroke-width="1" fill="none" fill-rule="evenodd">
        <path d="M10.5184072,0 L8.04808415,7.66341097 L0,7.64838467 L6.51990984,12.3516153 L4.01652893,20 L10.5184072,15.2667168 L17.0187829,20 L14.515402,12.3516153 L21.0368144,7.64838467 L12.9872276,7.66341097 L10.5184072,0 L10.5184072,0 Z M10.5184072,4.8985725 L11.5567243,8.11419985 L11.8948159,9.16604057 L12.9902329,9.16604057 L16.3801653,9.15101427 L13.634861,11.1344853 L12.7453043,11.7806161 L13.0879038,12.8324568 L14.1412472,16.0480841 L10.5184072,13.403456 L9.63185575,14.0495868 L6.89406461,16.0480841 L7.94891059,12.8324568 L8.29000751,11.7806161 L7.40045079,11.1344853 L4.65514651,9.15101427 L8.04507889,9.16604057 L9.1419985,9.16604057 L9.47858753,8.11419985 L10.5184072,4.8985725 L10.5184072,4.8985725 Z" id="star_inactive" fill="#DDDDDD"></path>
    </g>
</svg>