<?xml version="1.0" encoding="UTF-8"?>
<svg width="35px" height="35px" viewBox="0 0 35 35" version="1.1" xmlns="http://www.w3.org/2000/svg" xmlns:xlink="http://www.w3.org/1999/xlink">
    <!-- Generator: Sketch 51.3 (57544) - http://www.bohemiancoding.com/sketch -->
    <title>google_plus</title>
    <desc>Created with Sketch.</desc>
    <defs></defs>
    <g id="UiKit" stroke="none" stroke-width="1" fill="none" fill-rule="evenodd">
        <g id="google_plus">
            <path d="M0,17.2131148 C0,7.70657351 7.71771017,0 17.2379892,0 C26.7582682,0 34.4759784,7.70657351 34.4759784,17.2131148 C34.4759784,26.719656 26.7582682,34.4262295 17.2379892,34.4262295 C7.71771017,34.4262295 0,26.719656 0,17.2131148 Z" id="back" fill="#DC4B38"></path>
            <path d="M14.0834575,16.7213115 L14.0834575,18.5901639 L17.1896423,18.5901639 C17.064456,19.3922131 16.2507452,20.9418033 14.0834575,20.9418033 C12.2134873,20.9418033 10.6877794,19.4 10.6877794,17.5 C10.6877794,15.6 12.2134873,14.0581967 14.0834575,14.0581967 C15.147541,14.0581967 15.859538,14.5098361 16.2663934,14.8991803 L17.7529806,13.4741803 C16.7984352,12.5864754 15.5622206,12.0491803 14.0834575,12.0491803 C11.0555142,12.0491803 8.60655738,14.4864754 8.60655738,17.5 C8.60655738,20.5135246 11.0555142,22.9508197 14.0834575,22.9508197 C17.2444113,22.9508197 19.3412817,20.7393443 19.3412817,17.6245902 C19.3412817,17.2663934 19.302161,16.9938525 19.2552161,16.7213115 L14.0834575,16.7213115 L14.0834575,16.7213115 Z" id="Shape" fill="#FFFFFF"></path>
            <polyline id="Shape-Copy" fill="#FFFFFF" points="25.8196721 16.7213115 24.2548435 16.7213115 24.2548435 15.1639344 22.6900149 15.1639344 22.6900149 16.7213115 21.1251863 16.7213115 21.1251863 18.2786885 22.6900149 18.2786885 22.6900149 19.8360656 24.2548435 19.8360656 24.2548435 18.2786885 25.8196721 18.2786885"></polyline>
        </g>
    </g>
</svg>